<?xml version="1.0" encoding="utf-8"?>
<svg xmlns="http://www.w3.org/2000/svg" style="margin: auto; background: none; display: block; shape-rendering: auto;" width="284" height="77" preserveAspectRatio="xMidYMid">
<style type="text/css">
  text {
    text-anchor: middle; font-size: 54px; opacity: 0;
  }
</style>
<g style="transform-origin: 142px 38.5px; transform: scale(0.675);">
<g transform="translate(142,38.5)">
  <g transform="translate(0,0)"><g class="path" style="transform: scale(0.91); transform-origin: -149.56px 6.94773px; animation: 1s linear -0.586667s infinite normal forwards running breath-7c882fba-c484-46a7-b8ff-fd0b4cd1ebfc;"><path d="M0.80 17.84L0.80 17.84Q0.80 13.68 5.96 10.64L5.96 10.64L5.96 10.64Q11.12 7.60 18.60 7.60L18.60 7.60L18.60 7.60Q26.08 7.60 34.96 11.12L34.96 11.12L34.96 11.12Q45.44 3.36 52.36-7.16L52.36-7.16L52.36-7.16Q59.28-17.68 59.28-27.36L59.28-27.36L59.28-27.36Q59.28-37.04 54.24-42.12L54.24-42.12L54.24-42.12Q49.20-47.20 39.76-47.20L39.76-47.20L39.76-47.20Q31.68-47.20 24.64-39.04L24.64-39.04L24.64-39.04Q21.12-34.96 18.96-27.64L18.96-27.64L18.96-27.64Q16.80-20.32 16.80-10.88L16.80-10.88L16.80-10.88Q16.80-7.52 17.48-5.08L17.48-5.08L17.48-5.08Q18.16-2.64 19-1.52L19-1.52L19-1.52Q19.84-0.40 21.28 0.24L21.28 0.24L21.28 0.24Q22.96 1.04 25.28 1.04L25.28 1.04L25.28 1.04Q30.08 1.04 34.20-4.24L34.20-4.24L34.20-4.24Q38.32-9.52 38.32-16.72L38.32-16.72L38.32-16.72Q38.32-23.52 33.76-26.32L33.76-26.32L33.76-26.32Q32-27.36 29.04-27.68L29.04-27.68L29.04-29.28L29.04-29.28Q33.36-29.28 36.64-26.04L36.64-26.04L36.64-26.04Q39.92-22.80 39.92-16.72L39.92-16.72L39.92-16.72Q39.92-8.88 35.12-2.80L35.12-2.80L35.12-2.80Q30.32 3.28 22.52 3.28L22.52 3.28L22.52 3.28Q14.72 3.28 10.72-1.12L10.72-1.12L10.72-1.12Q6.72-5.52 6.72-13.52L6.72-13.52L6.72-13.52Q6.72-23.44 11.84-32.32L11.84-32.32L11.84-32.32Q14.48-36.96 18.24-40.60L18.24-40.60L18.24-40.60Q22-44.24 27.60-46.52L27.60-46.52L27.60-46.52Q33.20-48.80 39.76-48.80L39.76-48.80L39.76-48.80Q49.76-48.80 55.28-43.24L55.28-43.24L55.28-43.24Q60.80-37.68 60.80-27.60L60.80-27.60L60.80-27.60Q60.80-17.52 53.96-6.92L53.96-6.92L53.96-6.92Q47.12 3.68 36.56 11.76L36.56 11.76L36.56 11.76Q39.44 12.96 44.48 15.60L44.48 15.60L44.48 15.60Q49.52 18.24 52.92 19.52L52.92 19.52L52.92 19.52Q56.32 20.80 59.04 20.80L59.04 20.80L59.04 20.80Q61.76 20.80 63.80 20.08L63.80 20.08L63.80 20.08Q65.84 19.36 67.04 18.40L67.04 18.40L67.04 18.40Q68.24 17.44 69.12 16.32L69.12 16.32L69.12 16.32Q70.40 14.64 70.72 13.76L70.72 13.76L72.24 14.16L72.24 14.16Q68.80 23.52 52.16 23.52L52.16 23.52L52.16 23.52Q47.36 23.52 42.72 22.44L42.72 22.44L42.72 22.44Q38.08 21.36 35.56 20.28L35.56 20.28L35.56 20.28Q33.04 19.20 28.80 17.12L28.80 17.12L28.80 17.12Q17.76 23.52 8.24 23.52L8.24 23.52L8.24 23.52Q4.48 23.52 2.64 21.88L2.64 21.88L2.64 21.88Q0.80 20.24 0.80 17.84L0.80 17.84zM2.64 17.84L2.64 17.84L2.64 17.84Q2.64 19.68 4.24 20.80L4.24 20.80L4.24 20.80Q5.84 21.92 8.64 21.92L8.64 21.92L8.64 21.92Q17.12 21.92 27.12 16.24L27.12 16.24L27.12 16.24Q17.84 11.76 10.96 11.76L10.96 11.76L10.96 11.76Q7.76 11.76 5.20 13.36L5.20 13.36L5.20 13.36Q2.64 14.96 2.64 17.84" fill="#0a0a0a" stroke="none" stroke-width="none" transform="translate(-186.07998657226562,19.587734544542105)" style="fill: rgb(10, 10, 10);"></path></g><g class="path" style="transform: scale(0.91); transform-origin: -101.4px 4.38773px; animation: 1s linear -0.513333s infinite normal forwards running breath-7c882fba-c484-46a7-b8ff-fd0b4cd1ebfc;"><path d="M72-29.52L72-29.52L72-29.52Q70.08-29.52 68-27.28L68-27.28L66.80-28.24L66.80-28.24Q67.36-29.36 69.28-30.24L69.28-30.24L69.28-30.24Q71.20-31.12 73.52-31.12L73.52-31.12L73.52-31.12Q80.80-31.12 80.80-24.56L80.80-24.56L80.80-24.56Q80.80-21.76 79.36-14.56L79.36-14.56L79.36-14.56Q77.92-7.36 77.92-5.12L77.92-5.12L77.92-5.12Q77.92-1.68 81.20-1.68L81.20-1.68L81.20-1.68Q83.52-1.68 85.72-4.40L85.72-4.40L85.72-4.40Q87.92-7.12 89.52-11.92L89.52-11.92L92.88-30.40L92.88-30.40Q98.80-30.40 101.52-30.88L101.52-30.88L102.56-31.12L97.20-0.88L97.20-0.88Q99.60-1.12 101.20-3.12L101.20-3.12L102.40-2.16L102.40-2.16Q100 0.72 96.40 0.72L96.40 0.72L96.40 0.72Q92.80 0.72 90.80-1.04L90.80-1.04L90.80-1.04Q88.80-2.80 88.72-6L88.72-6L88.72-6Q85.36 0.72 78.80 0.72L78.80 0.72L78.80 0.72Q74.08 0.72 71.44-1.96L71.44-1.96L71.44-1.96Q68.80-4.64 68.80-9.36L68.80-9.36L68.80-9.36Q68.80-11.84 70.32-18.92L70.32-18.92L70.32-18.92Q71.84-26 72-29.52" fill="#0a0a0a" stroke="none" stroke-width="none" transform="translate(-186.07998657226562,19.587734544542105)" style="fill: rgb(40, 41, 47);"></path></g><g class="path" style="transform: scale(0.91); transform-origin: -71.32px 4.38773px; animation: 1s linear -0.44s infinite normal forwards running breath-7c882fba-c484-46a7-b8ff-fd0b4cd1ebfc;"><path d="M121.44-2.16L121.44-2.16Q119.04 0.72 115.44 0.72L115.44 0.72L115.44 0.72Q111.84 0.72 109.80-1.12L109.80-1.12L109.80-1.12Q107.76-2.96 107.76-5.92L107.76-5.92L107.76-5.92Q107.76-6.96 109.04-14.64L109.04-14.64L111.68-28.96L108.32-28.96L108.48-30.40L111.92-30.40L111.92-30.40Q117.84-30.40 120.64-30.88L120.64-30.88L121.76-31.12L116.24-0.88L116.24-0.88Q118.64-1.12 120.24-3.12L120.24-3.12L121.44-2.16" fill="#0a0a0a" stroke="none" stroke-width="none" transform="translate(-186.07998657226562,19.587734544542105)" style="fill: rgb(10, 10, 10);"></path></g><g class="path" style="transform: scale(0.91); transform-origin: -67.56px -23.3323px; animation: 1s linear -0.366667s infinite normal forwards running breath-7c882fba-c484-46a7-b8ff-fd0b4cd1ebfc;"><path d="M114.40-38.80L114.40-38.80L114.40-38.80Q112.72-40.48 112.72-42.88L112.72-42.88L112.72-42.88Q112.72-45.28 114.40-47L114.40-47L114.40-47Q116.08-48.72 118.48-48.72L118.48-48.72L118.48-48.72Q120.88-48.72 122.60-47L122.60-47L122.60-47Q124.32-45.28 124.32-42.88L124.32-42.88L124.32-42.88Q124.32-40.48 122.60-38.80L122.60-38.80L122.60-38.80Q120.88-37.12 118.48-37.12L118.48-37.12L118.48-37.12Q116.08-37.12 114.40-38.80" fill="#0a0a0a" stroke="none" stroke-width="none" transform="translate(-186.07998657226562,19.587734544542105)" style="fill: rgb(40, 41, 47);"></path></g><g class="path" style="transform: scale(0.91); transform-origin: -45.36px 4.38773px; animation: 1s linear -0.293333s infinite normal forwards running breath-7c882fba-c484-46a7-b8ff-fd0b4cd1ebfc;"><path d="M132.80-29.60L132.80-29.60L132.80-29.60Q130.80-29.60 129.44-28.24L129.44-28.24L129.44-28.24Q128.08-26.88 128.08-25.04L128.08-25.04L128.08-25.04Q128.08-23.20 129.12-21.28L129.12-21.28L127.68-20.72L127.68-20.72Q126.40-22.32 126.40-24.96L126.40-24.96L126.40-24.96Q126.40-27.60 128.20-29.36L128.20-29.36L128.20-29.36Q130.00-31.12 132.56-31.12L132.56-31.12L132.56-31.12Q135.12-31.12 139.40-30.36L139.40-30.36L139.40-30.36Q143.68-29.60 149-29.64L149-29.64L149-29.64Q154.32-29.68 156.88-30.32L156.88-30.32L135.68-2.08L135.68-2.08Q139.92-0.80 144.96-0.72L144.96-0.72L144.96-0.72Q148.16-0.72 150.52-2.52L150.52-2.52L150.52-2.52Q152.88-4.32 153.60-6.08L153.60-6.08L154.32-7.84L155.68-7.36L155.68-7.36Q154.96-4.48 152.40-1.88L152.40-1.88L152.40-1.88Q149.84 0.72 144.76 0.72L144.76 0.72L144.76 0.72Q139.68 0.72 135.52-0.40L135.52-0.40L135.52-0.40Q131.36-1.52 129.44-1.52L129.44-1.52L129.44-1.52Q127.52-1.52 126.00 0L126.00 0L124.56 0L145.52-28.32L145.52-28.32Q141.36-28.48 138.08-29.04L138.08-29.04L138.08-29.04Q134.80-29.60 132.80-29.60" fill="#0a0a0a" stroke="none" stroke-width="none" transform="translate(-186.07998657226562,19.587734544542105)" style="fill: rgb(10, 10, 10);"></path></g><g class="path" style="transform: scale(0.91); transform-origin: -12.8px 4.38773px; animation: 1s linear -0.22s infinite normal forwards running breath-7c882fba-c484-46a7-b8ff-fd0b4cd1ebfc;"><path d="M176.80-31.12L176.80-31.12L176.80-31.12Q186.96-31.12 186.96-23.04L186.96-23.04L186.96-23.04Q186.96-18 182.20-15.40L182.20-15.40L182.20-15.40Q177.44-12.80 168.64-12.72L168.64-12.72L168.64-12.72Q168.48-9.84 168.48-8.16L168.48-8.16L168.48-8.16Q168.48-4.56 170.12-2.84L170.12-2.84L170.12-2.84Q171.76-1.12 174.24-1.12L174.24-1.12L174.24-1.12Q176.72-1.12 178.76-2.08L178.76-2.08L178.76-2.08Q180.80-3.04 182-4.36L182-4.36L182-4.36Q183.20-5.68 184.08-7.12L184.08-7.12L184.08-7.12Q185.68-9.76 185.68-10.48L185.68-10.48L187.12-9.84L187.12-9.84Q186.88-8.56 185.68-6.44L185.68-6.44L185.68-6.44Q184.48-4.32 183.04-2.96L183.04-2.96L183.04-2.96Q181.60-1.60 178.80-0.44L178.80-0.44L178.80-0.44Q176 0.72 172.56 0.72L172.56 0.72L172.56 0.72Q166.08 0.72 162.76-2.36L162.76-2.36L162.76-2.36Q159.44-5.44 159.44-10.80L159.44-10.80L159.44-10.80Q159.44-20.32 164.16-25.72L164.16-25.72L164.16-25.72Q168.88-31.12 176.80-31.12zM184.96-23.04L184.96-23.04Q184.96-25.68 183.40-27.40L183.40-27.40L183.40-27.40Q181.84-29.12 178.76-29.12L178.76-29.12L178.76-29.12Q175.68-29.12 172.76-25.44L172.76-25.44L172.76-25.44Q169.84-21.76 168.88-14.56L168.88-14.56L168.88-14.56Q184.96-14.64 184.96-23.04L184.96-23.04" fill="#0a0a0a" stroke="none" stroke-width="none" transform="translate(-186.07998657226562,19.587734544542105)" style="fill: rgb(40, 41, 47);"></path></g><g class="path" style="transform: scale(0.91); transform-origin: 68.2px 1.14774px; animation: 1s linear -0.146667s infinite normal forwards running breath-7c882fba-c484-46a7-b8ff-fd0b4cd1ebfc;"><path d="M287.04 3.28L287.04 3.28L287.04 3.28Q289.12 3.28 291.04 1.04L291.04 1.04L292.24 2L292.24 2Q292 2.32 291.60 2.80L291.60 2.80L291.60 2.80Q291.20 3.28 289.64 4.08L289.64 4.08L289.64 4.08Q288.08 4.88 286.24 4.88L286.24 4.88L286.24 4.88Q277.28 4.88 277.28-2.88L277.28-2.88L277.28-2.88Q277.28-5.28 277.84-10L277.84-10L277.84-10Q274-8.80 270.96-8.80L270.96-8.80L270.96-8.80Q265.60-8.80 260.24-12.08L260.24-12.08L260.24-12.08Q257.12-6.72 254.40-2.92L254.40-2.92L254.40-2.92Q251.68 0.88 248.08 4.48L248.08 4.48L248.08 4.48Q240.64 11.76 230.12 11.76L230.12 11.76L230.12 11.76Q219.60 11.76 213.36 5.04L213.36 5.04L213.36 5.04Q207.84-1.12 207.84-9.96L207.84-9.96L207.84-9.96Q207.84-18.80 213.52-25.68L213.52-25.68L213.52-25.68Q219.20-32.56 228.24-32.56L228.24-32.56L228.24-32.56Q237.28-32.56 242-27.20L242-27.20L242-27.20Q243.12-25.76 243.60-25.04L243.60-25.04L243.60-25.04Q247.92-23.20 253.44-18.96L253.44-18.96L253.44-18.96Q257.60-15.60 259.60-14.32L259.60-14.32L259.60-14.32Q260.72-16.40 262.68-19.92L262.68-19.92L262.68-19.92Q264.64-23.44 265.68-25.28L265.68-25.28L265.68-25.28Q266.72-27.12 268.80-30.48L268.80-30.48L268.80-30.48Q270.88-33.84 272.20-35.56L272.20-35.56L272.20-35.56Q273.52-37.28 275.72-39.88L275.72-39.88L275.72-39.88Q277.92-42.48 279.76-43.76L279.76-43.76L279.76-43.76Q285.28-47.68 289.04-48.32L289.04-48.32L289.04-48.32Q291.12-48.64 292.56-48.64L292.56-48.64L292.56-48.64Q294-48.64 295.76-48.60L295.76-48.60L295.76-48.60Q297.52-48.56 300.72-47.68L300.72-47.68L300.32-46.16L300.32-46.16Q298.40-46.72 296.24-46.96L296.24-46.96L296.24-46.96Q288.24-15.52 287.04 3.28zM246.16-15.76L246.16-15.76L246.16-15.76Q246.16-9.84 242.76-5.28L242.76-5.28L242.76-5.28Q239.36-0.72 233.60-0.72L233.60-0.72L233.60-0.72Q229.84-0.72 227.48-2.96L227.48-2.96L227.48-2.96Q225.12-5.20 225.12-7.60L225.12-7.60L225.12-7.60Q225.12-10 225.84-11.56L225.84-11.56L225.84-11.56Q226.56-13.12 227.48-13.92L227.48-13.92L227.48-13.92Q228.40-14.72 229.52-15.20L229.52-15.20L229.52-15.20Q231.04-16 231.92-16L231.92-16L232.08-14.40L232.08-14.40Q230.08-14.40 228.40-12.48L228.40-12.48L228.40-12.48Q226.72-10.56 226.72-8.16L226.72-8.16L226.72-8.16Q226.72-5.76 228.60-4.04L228.60-4.04L228.60-4.04Q230.48-2.32 233.60-2.32L233.60-2.32L233.60-2.32Q238.72-2.32 241.68-6.32L241.68-6.32L241.68-6.32Q244.64-10.32 244.64-15.20L244.64-15.20L244.64-15.20Q244.64-20.08 242.64-23.68L242.64-23.68L242.64-23.68Q238.24-25.36 233.92-25.36L233.92-25.36L233.92-25.36Q225.60-25.36 222.16-17.60L222.16-17.60L220.64-18.08L220.64-18.08Q221.52-20.08 223.44-22.40L223.44-22.40L223.44-22.40Q227.20-26.96 233.92-26.96L233.92-26.96L233.92-26.96Q237.52-26.96 241.04-25.92L241.04-25.92L240.88-26.16L240.88-26.16Q236.48-30.96 228.20-30.96L228.20-30.96L228.20-30.96Q219.92-30.96 214.68-24.56L214.68-24.56L214.68-24.56Q209.44-18.16 209.44-9.88L209.44-9.88L209.44-9.88Q209.44-1.60 214.56 3.92L214.56 3.92L214.56 3.92Q220.32 10.16 230.64 10.16L230.64 10.16L230.64 10.16Q240.08 10.16 247.12 3.04L247.12 3.04L247.12 3.04Q250.64-0.40 253.24-4.08L253.24-4.08L253.24-4.08Q255.84-7.76 258.88-12.96L258.88-12.96L258.88-12.96Q256.16-14.72 252.28-17.80L252.28-17.80L252.28-17.80Q248.40-20.88 244.80-22.72L244.80-22.72L244.80-22.72Q246.16-19.36 246.16-15.76zM264.08-18.96L261.04-13.44L261.04-13.44Q266.16-10.40 270.44-10.40L270.44-10.40L270.44-10.40Q274.72-10.40 278.08-11.76L278.08-11.76L278.08-11.76Q280-25.28 285.28-45.36L285.28-45.36L285.28-45.36Q278.88-42.32 273.52-34.56L273.52-34.56L273.52-34.56Q269.60-28.96 264.08-18.96L264.08-18.96" fill="#0a0a0a" stroke="none" stroke-width="none" transform="translate(-186.07998657226562,19.587734544542105)" style="fill: rgb(10, 10, 10);"></path></g><g class="path" style="transform: scale(0.91); transform-origin: 130.48px 9.66773px; animation: 1s linear -0.0733333s infinite normal forwards running breath-7c882fba-c484-46a7-b8ff-fd0b4cd1ebfc;"><path d="M316.24 0.64L316.24 0.64L316.24 0.64Q312.56 0.64 310.40-1.04L310.40-1.04L308 11.84L298.48 11.84L306-30.08L306-30.08Q303.60-29.84 302-27.84L302-27.84L300.80-28.80L300.80-28.80Q303.20-31.68 306.76-31.68L306.76-31.68L306.76-31.68Q310.32-31.68 312.32-29.96L312.32-29.96L312.32-29.96Q314.32-28.24 314.48-25.12L314.48-25.12L314.48-25.12Q318-31.12 323.44-31.12L323.44-31.12L323.44-31.12Q328.88-31.12 331.76-28.04L331.76-28.04L331.76-28.04Q334.64-24.96 334.64-19.60L334.64-19.60L334.64-19.60Q334.64-10.16 329.52-4.76L329.52-4.76L329.52-4.76Q324.40 0.64 316.24 0.64zM313.84-19.92L310.96-4.24L310.96-4.24Q312.32-1.20 316.12-1.20L316.12-1.20L316.12-1.20Q319.92-1.20 322.76-7.60L322.76-7.60L322.76-7.60Q325.60-14 325.60-22.88L325.60-22.88L325.60-22.88Q325.60-26.56 324.84-27.92L324.84-27.92L324.84-27.92Q324.08-29.28 322.08-29.28L322.08-29.28L322.08-29.28Q320.08-29.28 317.96-26.88L317.96-26.88L317.96-26.88Q315.84-24.48 314.88-22.36L314.88-22.36L314.88-22.36Q313.92-20.24 313.92-19.92L313.92-19.92L313.84-19.92" fill="#0a0a0a" stroke="none" stroke-width="none" transform="translate(-186.07998657226562,19.587734544542105)" style="fill: rgb(40, 41, 47);"></path></g><g class="path" style="transform: scale(0.91); transform-origin: 168.8px 9.66773px; animation: 1s linear 0s infinite normal forwards running breath-7c882fba-c484-46a7-b8ff-fd0b4cd1ebfc;"><path d="M354.56 0.64L354.56 0.64L354.56 0.64Q350.88 0.64 348.72-1.04L348.72-1.04L346.32 11.84L336.80 11.84L344.32-30.08L344.32-30.08Q341.92-29.84 340.32-27.84L340.32-27.84L339.12-28.80L339.12-28.80Q341.52-31.68 345.08-31.68L345.08-31.68L345.08-31.68Q348.64-31.68 350.64-29.96L350.64-29.96L350.64-29.96Q352.64-28.24 352.80-25.12L352.80-25.12L352.80-25.12Q356.32-31.12 361.76-31.12L361.76-31.12L361.76-31.12Q367.20-31.12 370.08-28.04L370.08-28.04L370.08-28.04Q372.96-24.96 372.96-19.60L372.96-19.60L372.96-19.60Q372.96-10.16 367.84-4.76L367.84-4.76L367.84-4.76Q362.72 0.64 354.56 0.64zM352.16-19.92L349.28-4.24L349.28-4.24Q350.64-1.20 354.44-1.20L354.44-1.20L354.44-1.20Q358.24-1.20 361.08-7.60L361.08-7.60L361.08-7.60Q363.92-14 363.92-22.88L363.92-22.88L363.92-22.88Q363.92-26.56 363.16-27.92L363.16-27.92L363.16-27.92Q362.40-29.28 360.40-29.28L360.40-29.28L360.40-29.28Q358.40-29.28 356.28-26.88L356.28-26.88L356.28-26.88Q354.16-24.48 353.20-22.36L353.20-22.36L353.20-22.36Q352.24-20.24 352.24-19.92L352.24-19.92L352.16-19.92" fill="#0a0a0a" stroke="none" stroke-width="none" transform="translate(-186.07998657226562,19.587734544542105)" style="fill: rgb(10, 10, 10);"></path></g></g>
</g>
</g>
<style id="breath-7c882fba-c484-46a7-b8ff-fd0b4cd1ebfc" data-anikit="">@keyframes breath-7c882fba-c484-46a7-b8ff-fd0b4cd1ebfc
{
  0% {
    animation-timing-function: cubic-bezier(0.9647,0.2413,-0.0705,0.7911);
    transform: scale(0.9099999999999999);
  }
  51% {
    animation-timing-function: cubic-bezier(0.9226,0.2631,-0.0308,0.7628);
    transform: scale(1.02994);
  }
  100% {
    transform: scale(0.9099999999999999);
  }
}</style></svg>